<svg version="1.1" id="Layer_1" xmlns="http://www.w3.org/2000/svg" xmlns:xlink="http://www.w3.org/1999/xlink" x="0px" y="0px"
	 width="100%" viewBox="0 0 512 512" enable-background="new 0 0 512 512" xml:space="preserve">
<path fill="#000000" opacity="1.000000" stroke="none" 
	d="
M0.999999,433.000000 
	C1.000000,289.044800 1.000000,145.089600 1.000000,1.067205 
	C171.568741,1.067205 342.137512,1.067205 513.000000,1.067205 
	C513.000000,144.690613 513.000000,288.381409 512.641785,432.575195 
	C509.879700,428.421600 507.407318,423.798981 505.083832,419.102692 
	C495.076477,398.875641 485.128418,378.619232 475.103180,358.401123 
	C474.318054,356.817749 473.105438,355.446350 472.059204,353.510376 
	C472.017242,283.549377 472.006805,214.054459 471.998383,144.559555 
	C471.995117,117.561478 472.156006,90.562096 471.935974,63.565804 
	C471.804382,47.417614 459.195099,34.950333 443.239716,34.960236 
	C318.748627,35.037506 194.257462,34.999722 69.766335,35.027874 
	C67.468048,35.028393 65.069061,35.045033 62.888004,35.660210 
	C48.966839,39.586723 41.006989,50.340801 41.006195,64.995201 
	C41.001072,159.488480 41.002785,253.981766 41.010540,348.475037 
	C41.010693,350.305756 41.111904,352.136475 40.998810,354.283173 
	C31.881056,372.751953 22.913261,390.896271 13.993202,409.064087 
	C12.023693,413.075500 10.419849,417.276733 8.290554,421.196594 
	C6.086579,425.253937 3.448298,429.075378 0.999999,433.000000 
z"/>
<path fill="#344A5E" opacity="1.000000" stroke="none" 
	d="
M472.091492,353.976440 
	C473.105438,355.446350 474.318054,356.817749 475.103180,358.401123 
	C485.128418,378.619232 495.076477,398.875641 505.083832,419.102692 
	C507.407318,423.798981 509.879700,428.421600 512.641785,433.039062 
	C513.000000,434.066681 513.000000,435.133331 512.537354,436.603210 
	C341.716461,437.004303 171.358231,437.002167 1.000000,437.000000 
	C1.000000,435.933319 1.000000,434.866669 0.999999,433.399994 
	C3.448298,429.075378 6.086579,425.253937 8.290554,421.196594 
	C10.419849,417.276733 12.023693,413.075500 13.993202,409.064087 
	C22.913261,390.896271 31.881056,372.751953 41.456108,354.289612 
	C185.417542,353.978882 328.754517,353.977661 472.091492,353.976440 
M243.500000,413.997559 
	C264.357391,413.997559 285.214783,413.997559 306.452332,413.997559 
	C306.127594,412.201141 306.146027,411.509186 305.880554,410.952667 
	C301.222443,401.187561 296.463257,391.470062 291.883209,381.668793 
	C290.427887,378.554352 288.056030,377.948761 284.988739,377.958282 
	C266.337982,378.016144 247.686523,378.054169 229.036407,377.929565 
	C225.378433,377.905151 223.199448,379.204956 221.663300,382.532379 
	C217.407913,391.749817 212.894867,400.848022 208.544357,410.022186 
	C208.089706,410.980896 208.040344,412.131805 207.623154,413.997559 
	C219.611191,413.997559 231.055588,413.997559 243.500000,413.997559 
z"/>
<path fill="#415A6B" opacity="1.000000" stroke="none" 
	d="
M1.000000,437.460449 
	C171.358231,437.002167 341.716461,437.004303 512.537354,437.003235 
	C513.000000,439.700165 513.000000,442.400360 512.617432,445.494446 
	C511.831543,446.551483 511.226257,447.166321 511.054596,447.884766 
	C506.543976,466.762848 488.625854,479.156281 470.790222,479.127838 
	C327.546600,478.899445 184.302444,479.002045 41.058445,478.982025 
	C38.745441,478.981689 36.363358,479.019501 34.130714,478.517853 
	C19.575842,475.247681 9.292852,466.781403 3.439813,452.976929 
	C2.959271,451.843536 1.828591,450.985809 0.999995,450.000000 
	C1.000000,445.973633 1.000000,441.947235 1.000000,437.460449 
z"/>
<path fill="#000000" opacity="1.000000" stroke="none" 
	d="
M0.999995,450.468658 
	C1.828591,450.985809 2.959271,451.843536 3.439813,452.976929 
	C9.292852,466.781403 19.575842,475.247681 34.130714,478.517853 
	C36.363358,479.019501 38.745441,478.981689 41.058445,478.982025 
	C184.302444,479.002045 327.546600,478.899445 470.790222,479.127838 
	C488.625854,479.156281 506.543976,466.762848 511.054596,447.884766 
	C511.226257,447.166321 511.831543,446.551483 512.617432,445.944214 
	C513.000000,468.318085 513.000000,490.636200 513.000000,512.950928 
	C342.333313,512.947632 171.666656,512.947632 1.000000,512.947632 
	C1.000000,492.242584 1.000000,471.589935 0.999995,450.468658 
z"/>
<path fill="#425B6B" opacity="1.000000" stroke="none" 
	d="
M472.059204,353.510376 
	C328.754517,353.977661 185.417542,353.978882 41.623260,353.973633 
	C41.111904,352.136475 41.010693,350.305756 41.010540,348.475037 
	C41.002785,253.981766 41.001072,159.488480 41.006195,64.995201 
	C41.006989,50.340801 48.966839,39.586723 62.888004,35.660210 
	C65.069061,35.045033 67.468048,35.028393 69.766335,35.027874 
	C194.257462,34.999722 318.748627,35.037506 443.239716,34.960236 
	C459.195099,34.950333 471.804382,47.417614 471.935974,63.565804 
	C472.156006,90.562096 471.995117,117.561478 471.998383,144.559555 
	C472.006805,214.054459 472.017242,283.549377 472.059204,353.510376 
M293.499817,315.751251 
	C340.253784,315.751251 387.007751,315.751251 433.631592,315.751251 
	C433.631592,234.602341 433.631592,154.214203 433.631592,73.852448 
	C315.972961,73.852448 198.718140,73.852448 81.314529,73.852448 
	C81.314529,154.531418 81.314529,234.918518 81.314529,315.751251 
	C151.918457,315.751251 222.209122,315.751251 293.499817,315.751251 
z"/>
<path fill="#415A6B" opacity="1.000000" stroke="none" 
	d="
M243.000000,413.997559 
	C231.055588,413.997559 219.611191,413.997559 207.623154,413.997559 
	C208.040344,412.131805 208.089706,410.980896 208.544357,410.022186 
	C212.894867,400.848022 217.407913,391.749817 221.663300,382.532379 
	C223.199448,379.204956 225.378433,377.905151 229.036407,377.929565 
	C247.686523,378.054169 266.337982,378.016144 284.988739,377.958282 
	C288.056030,377.948761 290.427887,378.554352 291.883209,381.668793 
	C296.463257,391.470062 301.222443,401.187561 305.880554,410.952667 
	C306.146027,411.509186 306.127594,412.201141 306.452332,413.997559 
	C285.214783,413.997559 264.357391,413.997559 243.000000,413.997559 
z"/>
<path fill="#F3F3F3" opacity="1.000000" stroke="none" 
	d="
M292.999817,315.751251 
	C222.209122,315.751251 151.918457,315.751251 81.314529,315.751251 
	C81.314529,234.918518 81.314529,154.531418 81.314529,73.852448 
	C198.718140,73.852448 315.972961,73.852448 433.631592,73.852448 
	C433.631592,154.214203 433.631592,234.602341 433.631592,315.751251 
	C387.007751,315.751251 340.253784,315.751251 292.999817,315.751251 
M248.156387,122.389626 
	C231.332733,101.942001 204.948792,94.830551 181.087280,104.312027 
	C157.707382,113.602135 143.416931,136.632523 145.155045,162.750427 
	C146.325531,180.338867 152.905151,196.099350 162.911346,210.382217 
	C186.484039,244.029892 219.198624,266.644745 254.808578,285.630127 
	C256.083740,286.309967 258.445587,286.054749 259.801727,285.317261 
	C288.808960,269.543091 315.676300,250.856689 337.922546,226.193115 
	C353.450714,208.977631 365.300385,189.808945 368.532623,166.177063 
	C372.403076,137.878510 355.369934,110.875465 328.126923,102.699760 
	C300.326080,94.356644 271.297546,107.246452 259.084808,133.342682 
	C258.505157,134.581253 257.794800,135.758652 257.132080,136.989105 
	C254.116745,132.015442 251.365265,127.477005 248.156387,122.389626 
z"/>
<path fill="#F3705B" opacity="1.000000" stroke="none" 
	d="
M248.385071,122.664093 
	C251.365265,127.477005 254.116745,132.015442 257.132080,136.989105 
	C257.794800,135.758652 258.505157,134.581253 259.084808,133.342682 
	C271.297546,107.246452 300.326080,94.356644 328.126923,102.699760 
	C355.369934,110.875465 372.403076,137.878510 368.532623,166.177063 
	C365.300385,189.808945 353.450714,208.977631 337.922546,226.193115 
	C315.676300,250.856689 288.808960,269.543091 259.801727,285.317261 
	C258.445587,286.054749 256.083740,286.309967 254.808578,285.630127 
	C219.198624,266.644745 186.484039,244.029892 162.911346,210.382217 
	C152.905151,196.099350 146.325531,180.338867 145.155045,162.750427 
	C143.416931,136.632523 157.707382,113.602135 181.087280,104.312027 
	C204.948792,94.830551 231.332733,101.942001 248.385071,122.664093 
M342.900055,135.687531 
	C337.621521,131.542725 332.652740,126.862465 326.901123,123.535515 
	C324.809937,122.325890 319.932648,123.378784 318.030701,125.189461 
	C316.457153,126.687454 316.415924,131.199844 317.397461,133.711639 
	C320.265778,141.051666 325.607269,146.545700 332.815460,149.935730 
	C336.867340,151.841339 341.460419,154.212357 345.275146,150.281494 
	C349.371002,146.060928 346.331787,141.645462 344.118103,137.544113 
	C343.882629,137.107773 343.571716,136.712143 342.900055,135.687531 
z"/>
<path fill="#FFFDFD" opacity="1.000000" stroke="none" 
	d="
M343.097931,135.992584 
	C343.571716,136.712143 343.882629,137.107773 344.118103,137.544113 
	C346.331787,141.645462 349.371002,146.060928 345.275146,150.281494 
	C341.460419,154.212357 336.867340,151.841339 332.815460,149.935730 
	C325.607269,146.545700 320.265778,141.051666 317.397461,133.711639 
	C316.415924,131.199844 316.457153,126.687454 318.030701,125.189461 
	C319.932648,123.378784 324.809937,122.325890 326.901123,123.535515 
	C332.652740,126.862465 337.621521,131.542725 343.097931,135.992584 
z"/>
</svg>