<svg version="1.1" id="Layer_1" xmlns="http://www.w3.org/2000/svg" xmlns:xlink="http://www.w3.org/1999/xlink" x="0px" y="0px"
	 width="100%" viewBox="0 0 512 512" enable-background="new 0 0 512 512" xml:space="preserve">
<path fill="#DEF5FF" opacity="1.000000" stroke="none" 
	d="
M513.000000,117.000000 
	C513.000000,207.354233 513.000000,297.708466 512.671509,388.224274 
	C511.911377,388.865692 511.225952,389.280670 511.084412,389.834625 
	C504.156067,416.950409 479.657776,435.646667 452.465363,435.905701 
	C411.001923,436.300659 369.532532,436.068634 327.754669,435.809235 
	C327.297943,433.714264 327.032562,431.913361 327.025238,430.111420 
	C326.962616,414.691132 326.946747,399.270630 327.042267,383.540100 
	C346.474701,358.289703 365.808624,333.370148 385.076904,308.399902 
	C394.094788,296.713440 402.985779,284.929047 412.233765,273.010620 
	C418.136963,265.697815 423.813843,258.619110 429.307922,251.401306 
	C431.464081,248.568680 433.210968,245.424561 435.479614,242.320068 
	C440.350769,236.148621 445.878387,230.571625 449.191437,223.895630 
	C454.247986,213.706360 452.968292,203.274460 446.028015,193.527634 
	C433.552399,177.532074 411.031189,176.295624 398.071167,190.807861 
	C394.107727,195.245956 390.784180,200.255478 386.937805,205.173523 
	C378.986328,215.488129 371.264587,225.632538 363.261353,235.934662 
	C361.295837,238.129044 359.570312,240.133041 357.934479,242.207733 
	C347.678375,255.215195 337.442261,268.238403 327.140228,280.775024 
	C327.054901,251.500458 327.041382,222.707291 326.979187,193.914215 
	C326.974213,191.603241 326.902527,189.233643 326.407257,186.991714 
	C322.177277,167.843903 307.483185,156.065186 287.821259,156.042450 
	C239.555420,155.986649 191.289536,155.969788 143.013535,155.492310 
	C143.102707,152.891037 143.025620,150.709366 143.331253,148.582672 
	C144.812225,138.277832 146.395935,127.987762 148.386444,117.524895 
	C150.992447,117.312485 153.155243,117.228500 155.318024,117.228386 
	C272.386444,117.222069 389.454834,117.223984 506.523254,117.213509 
	C508.682159,117.213318 510.841095,117.074265 513.000000,117.000000 
z"/>
<path fill="#565F85" opacity="1.000000" stroke="none" 
	d="
M513.000000,116.531342 
	C510.841095,117.074265 508.682159,117.213318 506.523254,117.213509 
	C389.454834,117.223984 272.386444,117.222069 155.318024,117.228386 
	C153.155243,117.228500 150.992447,117.312485 148.388031,117.355331 
	C147.946396,117.353340 147.993240,117.018166 148.051147,116.623230 
	C149.743469,108.119873 150.908920,99.882294 153.099899,91.927155 
	C159.786743,67.648163 166.808853,43.460609 173.837784,19.277376 
	C175.630646,13.108992 177.932190,7.088465 180.000000,1.000001 
	C275.354218,1.000000 370.708466,1.000000 466.417603,1.376520 
	C467.423462,2.177435 468.019470,2.776425 468.733307,3.000831 
	C489.892700,9.652853 503.816589,23.600861 510.882111,44.559326 
	C511.200439,45.503567 512.276733,46.192268 513.000000,47.000000 
	C513.000000,70.020897 513.000000,93.041786 513.000000,116.531342 
M332.975250,78.722137 
	C372.250763,78.718437 411.526367,78.745796 450.801697,78.656952 
	C454.251984,78.649155 457.856689,78.382759 461.120056,77.368752 
	C470.225311,74.539543 475.497711,65.266922 473.901489,55.704876 
	C472.425964,46.865730 464.575226,39.977051 455.305725,39.937981 
	C427.679749,39.821541 400.052948,39.868282 372.426514,39.894142 
	C359.284912,39.906441 346.143402,40.015984 332.076630,39.914043 
	C321.587494,39.900558 311.098145,39.836205 300.609314,39.887253 
	C289.079620,39.943363 280.463531,47.919880 280.166992,58.688110 
	C279.874390,69.313095 288.241943,78.253723 299.622101,78.632912 
	C310.422913,78.992790 321.248657,78.605675 332.975250,78.722137 
M203.428009,64.550232 
	C204.025375,65.916679 204.524048,67.337044 205.236359,68.640694 
	C209.403275,76.266945 218.028748,79.959564 226.869141,77.958961 
	C234.880875,76.145889 240.902374,68.684479 241.436661,59.907906 
	C241.931702,51.775894 236.606308,43.866516 228.734070,41.005989 
	C215.687439,36.265244 199.964478,46.464375 203.428009,64.550232 
z"/>
<path fill="#22CBFC" opacity="1.000000" stroke="none" 
	d="
M176.000000,513.000000 
	C147.312439,513.000000 118.624878,513.000000 89.768372,512.689819 
	C89.130119,511.942688 88.730522,511.260590 88.181366,511.104462 
	C73.380379,506.895844 62.285786,491.048584 62.892487,474.963348 
	C63.381283,462.003937 62.914963,449.008484 62.960014,435.565308 
	C63.082039,405.111633 63.136131,375.121735 63.146442,345.131805 
	C63.163624,295.146667 63.104675,245.161469 63.177341,195.176453 
	C63.206505,175.114395 75.641579,159.291840 95.465866,156.989914 
	C110.754654,155.214630 126.379387,156.332581 141.909241,156.601837 
	C140.643738,172.209366 139.323761,187.379181 137.538971,202.633179 
	C131.769836,202.732346 126.462555,202.646393 121.162384,202.802048 
	C118.212059,202.888687 115.103722,202.869492 112.363052,203.785248 
	C105.440033,206.098450 101.194580,213.298416 102.170662,220.171982 
	C103.255699,227.812866 109.411865,233.386383 117.616234,233.760559 
	C124.065475,234.054672 130.532257,233.964203 136.994781,234.510422 
	C137.034073,247.611725 137.069839,260.247162 136.627686,272.920959 
	C127.845932,272.971466 119.542076,272.977570 111.238266,272.998016 
	C105.623726,273.011810 102.094421,275.853088 102.022812,280.391144 
	C101.951324,284.920685 105.540314,287.946136 111.180321,287.989716 
	C119.815506,288.056458 128.451202,288.056702 137.084259,288.518250 
	C137.730347,298.962189 138.378845,308.973053 138.555939,318.989746 
	C129.434814,318.997009 120.785057,318.987946 112.135345,319.003479 
	C105.635902,319.015167 101.900322,321.864655 102.024681,326.674286 
	C102.146019,331.367035 106.663544,334.970215 112.562447,334.990509 
	C121.711098,335.022034 130.859940,335.001068 140.020294,335.433624 
	C141.060440,345.861969 142.089005,355.859009 142.639038,365.904053 
	C131.522980,365.967590 120.884659,365.922577 110.248703,366.060272 
	C108.543182,366.082336 105.965607,366.401550 105.326805,367.487091 
	C103.865707,369.969940 102.365379,373.136688 102.700775,375.796204 
	C103.150818,379.364716 106.467140,380.988403 110.198303,380.998840 
	C121.832329,381.031372 133.466339,381.071014 145.151535,381.498535 
	C146.822556,391.919250 148.442368,401.949280 149.587341,411.986389 
	C136.476288,411.995728 123.840034,412.018127 111.203896,411.987366 
	C107.661613,411.978760 104.608200,412.689636 103.041534,416.348328 
	C100.544792,422.179077 104.611359,427.912506 111.571190,427.963379 
	C125.370270,428.064148 139.170761,427.970795 153.153870,427.962646 
	C153.337067,427.967560 153.703003,427.946991 153.749420,428.380707 
	C155.916916,438.852448 158.037979,448.890472 159.675812,458.951569 
	C143.056183,458.982635 126.919472,458.946320 110.783791,459.058441 
	C108.909866,459.071411 106.121269,459.312164 105.363441,460.485260 
	C103.812881,462.885529 102.311790,466.143280 102.694305,468.770691 
	C103.249321,472.583099 106.759109,474.023193 110.682129,474.019012 
	C128.481567,474.000183 146.281082,474.050690 164.121643,474.453217 
	C168.108475,487.553467 172.054245,500.276733 176.000000,513.000000 
z"/>
<path fill="#C3E7FD" opacity="1.000000" stroke="none" 
	d="
M141.854752,156.164124 
	C126.379387,156.332581 110.754654,155.214630 95.465866,156.989914 
	C75.641579,159.291840 63.206505,175.114395 63.177341,195.176453 
	C63.104675,245.161469 63.163624,295.146667 63.146442,345.131805 
	C63.136131,375.121735 63.082039,405.111633 62.526783,435.553040 
	C52.209003,435.688538 42.709549,433.635864 34.188301,428.909119 
	C18.568424,420.244781 7.395401,407.706635 2.884928,389.942078 
	C2.771974,389.497192 1.650900,389.308289 1.000000,389.000000 
	C1.000000,298.645782 1.000000,208.291550 1.459976,117.567154 
	C42.473309,117.207932 83.026665,117.230606 123.580025,117.219917 
	C131.717773,117.217773 139.855499,117.088707 147.993240,117.018166 
	C147.993240,117.018166 147.946396,117.353340 147.944824,117.522903 
	C146.395935,127.987762 144.812225,138.277832 143.331253,148.582672 
	C143.025620,150.709366 143.102707,152.891037 142.720215,155.543976 
	C142.242950,156.081772 142.048859,156.122940 141.854752,156.164124 
z"/>
<path fill="#3D3E65" opacity="1.000000" stroke="none" 
	d="
M148.051147,116.623230 
	C139.855499,117.088707 131.717773,117.217773 123.580025,117.219917 
	C83.026665,117.230606 42.473309,117.207932 1.459976,117.098495 
	C1.000000,93.979103 1.000000,70.958214 1.376184,47.504471 
	C2.298090,46.118954 3.022945,45.225941 3.363081,44.204788 
	C10.137838,23.865597 23.577366,10.219380 43.980888,3.445383 
	C45.131100,3.063511 46.000111,1.834648 47.000000,1.000000 
	C91.020897,1.000000 135.041794,1.000000 179.531342,1.000001 
	C177.932190,7.088465 175.630646,13.108992 173.837784,19.277376 
	C166.808853,43.460609 159.786743,67.648163 153.099899,91.927155 
	C150.908920,99.882294 149.743469,108.119873 148.051147,116.623230 
M118.943001,51.649540 
	C115.052948,63.300007 120.192902,74.446465 130.986511,77.766998 
	C141.412018,80.974297 152.208832,75.137619 155.368851,64.586113 
	C158.128632,55.371010 153.415665,45.315029 144.536133,41.472546 
	C134.878372,37.293297 125.182350,40.917595 118.943001,51.649540 
M42.126041,49.884655 
	C41.580696,51.273178 40.916100,52.627792 40.509972,54.055908 
	C38.376122,61.559437 41.170433,69.846451 47.349033,74.542458 
	C53.768066,79.421196 62.614620,79.892204 69.321335,75.712303 
	C76.228333,71.407555 79.705986,63.436970 78.131035,55.592625 
	C76.488472,47.411556 71.477356,42.054264 63.532364,40.345676 
	C54.793373,38.466335 47.488544,41.458153 42.126041,49.884655 
z"/>
<path fill="#000000" opacity="1.000000" stroke="none" 
	d="
M328.065643,436.102844 
	C369.532532,436.068634 411.001923,436.300659 452.465363,435.905701 
	C479.657776,435.646667 504.156067,416.950409 511.084412,389.834625 
	C511.225952,389.280670 511.911377,388.865692 512.671509,388.692932 
	C513.000000,430.279297 513.000000,471.558594 513.000000,513.000000 
	C442.979187,513.000000 372.958252,513.000000 302.167236,512.690063 
	C301.862366,511.940094 302.257324,511.251770 302.803223,511.097443 
	C310.818970,508.832184 316.051025,503.012360 321.003571,496.872253 
	C326.738647,489.762024 327.484589,481.037964 327.867645,472.532166 
	C328.413483,460.410675 328.044067,448.247955 328.065643,436.102844 
z"/>
<path fill="#7ADDFF" opacity="1.000000" stroke="none" 
	d="
M327.754669,435.809235 
	C328.044067,448.247955 328.413483,460.410675 327.867645,472.532166 
	C327.484589,481.037964 326.738647,489.762024 321.003571,496.872253 
	C316.051025,503.012360 310.818970,508.832184 302.803223,511.097443 
	C302.257324,511.251770 301.862366,511.940094 301.698608,512.690063 
	C260.312439,513.000000 218.624878,513.000000 176.468658,513.000000 
	C172.054245,500.276733 168.108475,487.553467 164.100571,474.444519 
	C164.038422,474.058868 164.055847,474.073944 164.519196,474.064240 
	C177.271606,474.048065 189.560822,474.075745 201.849655,474.019562 
	C207.297974,473.994659 210.611938,471.210083 210.795349,466.727112 
	C210.984039,462.115112 207.473770,458.967010 201.834732,458.953400 
	C188.217896,458.920441 174.600830,458.985260 160.778229,458.984406 
	C160.572586,458.958130 160.159027,458.928497 160.159027,458.928497 
	C158.037979,448.890472 155.916916,438.852448 154.250931,428.378235 
	C160.183182,427.940857 165.660385,427.949585 171.137527,427.936829 
	C199.184143,427.871460 227.230759,427.800507 255.628998,427.761414 
	C257.527466,427.250977 259.173798,426.898651 260.605621,426.140961 
	C273.406403,419.367188 286.199585,412.577606 298.930450,405.673706 
	C305.047180,402.356598 311.025208,398.783691 317.367493,395.153381 
	C320.751587,391.270111 323.834229,387.560150 326.916870,383.850189 
	C326.946747,399.270630 326.962616,414.691132 327.025238,430.111420 
	C327.032562,431.913361 327.297943,433.714264 327.754669,435.809235 
z"/>
<path fill="#000000" opacity="1.000000" stroke="none" 
	d="
M1.000000,389.468658 
	C1.650900,389.308289 2.771974,389.497192 2.884928,389.942078 
	C7.395401,407.706635 18.568424,420.244781 34.188301,428.909119 
	C42.709549,433.635864 52.209003,435.688538 62.439171,436.016785 
	C62.914963,449.008484 63.381283,462.003937 62.892487,474.963348 
	C62.285786,491.048584 73.380379,506.895844 88.181366,511.104462 
	C88.730522,511.260590 89.130119,511.942688 89.299713,512.689819 
	C59.727318,513.000000 30.454634,513.000000 1.000000,513.000000 
	C1.000000,471.979279 1.000000,430.958313 1.000000,389.468658 
z"/>
<path fill="#000000" opacity="1.000000" stroke="none" 
	d="
M46.531342,1.000000 
	C46.000111,1.834648 45.131100,3.063511 43.980888,3.445383 
	C23.577366,10.219380 10.137838,23.865597 3.363081,44.204788 
	C3.022945,45.225941 2.298090,46.118954 1.376184,47.035812 
	C1.000000,31.739954 1.000000,16.479908 1.000000,1.000000 
	C16.020180,1.000000 31.041431,1.000000 46.531342,1.000000 
z"/>
<path fill="#000000" opacity="1.000000" stroke="none" 
	d="
M513.000000,46.531342 
	C512.276733,46.192268 511.200439,45.503567 510.882111,44.559326 
	C503.816589,23.600861 489.892700,9.652853 468.733307,3.000831 
	C468.019470,2.776425 467.423462,2.177435 466.886261,1.376520 
	C482.260040,1.000000 497.520111,1.000000 513.000000,1.000000 
	C513.000000,16.020180 513.000000,31.041431 513.000000,46.531342 
z"/>
<path fill="#7ADDFF" opacity="1.000000" stroke="none" 
	d="
M141.909241,156.601837 
	C142.048859,156.122940 142.242950,156.081772 142.730362,155.988922 
	C191.289536,155.969788 239.555420,155.986649 287.821259,156.042450 
	C307.483185,156.065186 322.177277,167.843903 326.407257,186.991714 
	C326.902527,189.233643 326.974213,191.603241 326.979187,193.914215 
	C327.041382,222.707291 327.054901,251.500458 327.031494,281.088928 
	C317.285706,294.263550 307.589355,306.642853 297.432068,319.023438 
	C244.319656,319.006226 191.668228,318.987732 139.009460,318.976929 
	C139.002121,318.984619 139.027344,318.983948 139.027344,318.983948 
	C138.378845,308.973053 137.730347,298.962189 137.065643,288.507080 
	C137.049423,288.062897 137.056396,288.078705 137.519684,288.059723 
	C186.814026,288.027161 235.645096,288.014435 284.476166,287.996429 
	C286.141602,287.995819 288.232941,288.567810 289.384247,287.783905 
	C291.813202,286.130035 294.948822,284.038727 295.531586,281.588623 
	C296.051941,279.400909 294.012421,276.041138 292.173004,274.062714 
	C291.036102,272.839935 288.161041,272.945801 286.065765,272.943573 
	C236.401291,272.891144 186.736755,272.905182 137.071793,272.904785 
	C137.071350,272.902496 137.105591,272.882629 137.105591,272.882629 
	C137.069839,260.247162 137.034073,247.611725 137.439438,234.434433 
	C140.578735,233.849243 143.276917,233.805878 146.438538,233.845139 
	C161.725891,233.907455 176.549774,233.875046 191.373657,233.869492 
	C218.024292,233.859497 244.675018,233.905136 271.325500,233.844223 
	C281.049225,233.821991 288.024811,227.321320 288.122253,218.473190 
	C288.225830,209.068207 281.668243,202.847778 271.358673,202.835938 
	C232.881882,202.791748 194.404984,202.813812 155.928131,202.820892 
	C152.964844,202.821426 150.001556,202.898834 146.586288,202.883957 
	C143.424133,202.734604 140.713943,202.641815 138.003784,202.549011 
	C139.323761,187.379181 140.643738,172.209366 141.909241,156.601837 
z"/>
<path fill="#FAE27A" opacity="1.000000" stroke="none" 
	d="
M327.042267,383.540100 
	C323.834229,387.560150 320.751587,391.270111 317.245911,394.754822 
	C314.150848,380.030090 308.841400,367.244415 294.900818,360.120422 
	C295.745544,359.535126 296.358032,359.190735 296.756165,358.679413 
	C314.877625,335.407318 332.987396,312.126129 351.082489,288.833496 
	C361.139954,275.887238 371.169189,262.919037 381.525757,250.059418 
	C391.871643,257.835114 401.902985,265.512085 411.934296,273.189056 
	C402.985779,284.929047 394.094788,296.713440 385.076904,308.399902 
	C365.808624,333.370148 346.474701,358.289703 327.042267,383.540100 
z"/>
<path fill="#FED05D" opacity="1.000000" stroke="none" 
	d="
M381.211182,249.960724 
	C371.169189,262.919037 361.139954,275.887238 351.082489,288.833496 
	C332.987396,312.126129 314.877625,335.407318 296.756165,358.679413 
	C296.358032,359.190735 295.745544,359.535126 294.530151,360.067200 
	C285.528473,357.222992 276.991699,356.855835 268.456909,357.546356 
	C274.167847,349.879944 279.753235,342.498352 285.601868,334.937561 
	C289.874420,329.512939 293.883728,324.267578 297.893036,319.022186 
	C307.589355,306.642853 317.285706,294.263550 327.090759,281.570312 
	C337.442261,268.238403 347.678375,255.215195 357.934479,242.207733 
	C359.570312,240.133041 361.295837,238.129044 363.568573,236.157196 
	C369.773743,240.514984 375.390198,244.807938 381.052795,249.317047 
	C381.098938,249.533203 381.211182,249.960724 381.211182,249.960724 
z"/>
<path fill="#7BDDFE" opacity="1.000000" stroke="none" 
	d="
M381.525757,250.059418 
	C381.211182,249.960724 381.098938,249.533203 381.350403,249.156403 
	C389.381287,238.873444 397.160736,228.967285 405.180817,219.059418 
	C405.421417,219.057724 405.900269,219.105698 406.049622,219.406708 
	C415.847412,227.279251 425.495850,234.850784 435.144226,242.422302 
	C433.210968,245.424561 431.464081,248.568680 429.307922,251.401306 
	C423.813843,258.619110 418.136963,265.697815 412.233765,273.010620 
	C401.902985,265.512085 391.871643,257.835114 381.525757,250.059418 
z"/>
<path fill="#FE8C8C" opacity="1.000000" stroke="none" 
	d="
M435.479645,242.320068 
	C425.495850,234.850784 415.847412,227.279251 406.188171,219.084473 
	C407.782196,216.167725 409.375916,213.866272 410.993896,211.582062 
	C418.832794,200.515411 428.812347,193.620895 443.105011,194.941025 
	C444.085938,195.031631 445.150208,194.219971 446.175751,193.827911 
	C452.968292,203.274460 454.247986,213.706360 449.191437,223.895630 
	C445.878387,230.571625 440.350769,236.148621 435.479645,242.320068 
z"/>
<path fill="#FC6060" opacity="1.000000" stroke="none" 
	d="
M446.028015,193.527618 
	C445.150208,194.219971 444.085938,195.031631 443.105011,194.941025 
	C428.812347,193.620895 418.832794,200.515411 410.993896,211.582062 
	C409.375916,213.866272 407.782196,216.167725 406.038788,218.783447 
	C405.900269,219.105698 405.421417,219.057724 404.983185,218.793335 
	C398.752502,214.020416 392.960052,209.511887 387.167603,205.003326 
	C390.784180,200.255478 394.107727,195.245956 398.071167,190.807861 
	C411.031189,176.295624 433.552399,177.532074 446.028015,193.527618 
z"/>
<path fill="#24CBFB" opacity="1.000000" stroke="none" 
	d="
M386.937836,205.173523 
	C392.960052,209.511887 398.752502,214.020416 404.742584,218.795044 
	C397.160736,228.967285 389.381287,238.873444 381.304260,248.940262 
	C375.390198,244.807938 369.773743,240.514984 363.850037,235.999481 
	C371.264587,225.632538 378.986328,215.488129 386.937836,205.173523 
z"/>
<path fill="#DEF5FF" opacity="1.000000" stroke="none" 
	d="
M333.001831,40.081474 
	C346.143402,40.015984 359.284912,39.906441 372.426514,39.894142 
	C400.052948,39.868282 427.679749,39.821541 455.305725,39.937981 
	C464.575226,39.977051 472.425964,46.865730 473.901489,55.704876 
	C475.497711,65.266922 470.225311,74.539543 461.120056,77.368752 
	C457.856689,78.382759 454.251984,78.649155 450.801697,78.656952 
	C411.526367,78.745796 372.250763,78.718437 332.420105,78.333054 
	C330.924103,77.300049 330.002167,76.626274 329.039490,76.016815 
	C319.334930,69.873016 315.927216,59.305794 321.766693,50.022179 
	C324.321808,45.960125 329.186127,43.350597 333.001831,40.081474 
z"/>
<path fill="#C0E3F9" opacity="1.000000" stroke="none" 
	d="
M332.539246,39.997757 
	C329.186127,43.350597 324.321808,45.960125 321.766693,50.022179 
	C315.927216,59.305794 319.334930,69.873016 329.039490,76.016815 
	C330.002167,76.626274 330.924103,77.300049 331.964172,78.245499 
	C321.248657,78.605675 310.422913,78.992790 299.622101,78.632912 
	C288.241943,78.253723 279.874390,69.313095 280.166992,58.688110 
	C280.463531,47.919880 289.079620,39.943363 300.609314,39.887253 
	C311.098145,39.836205 321.587494,39.900558 332.539246,39.997757 
z"/>
<path fill="#FD8B8B" opacity="1.000000" stroke="none" 
	d="
M203.304779,64.147575 
	C199.964478,46.464375 215.687439,36.265244 228.734070,41.005989 
	C236.606308,43.866516 241.931702,51.775894 241.436661,59.907906 
	C240.902374,68.684479 234.880875,76.145889 226.869141,77.958961 
	C218.028748,79.959564 209.403275,76.266945 205.236359,68.640694 
	C204.524048,67.337044 204.025375,65.916679 203.304779,64.147575 
z"/>
<path fill="#79DDFF" opacity="1.000000" stroke="none" 
	d="
M285.338654,335.116760 
	C279.753235,342.498352 274.167847,349.879944 268.278564,357.896820 
	C267.279327,360.980652 266.584015,363.429199 265.428284,365.892456 
	C224.338165,365.904572 183.708496,365.902039 143.083069,365.888306 
	C143.087296,365.877075 143.117569,365.856079 143.117569,365.856079 
	C142.089005,355.859009 141.060440,345.861969 140.015503,335.434265 
	C139.999146,335.003632 140.005661,335.014038 140.473114,334.985535 
	C173.253082,334.945648 205.565598,334.912140 237.878082,334.932373 
	C253.698303,334.942261 269.518463,335.052124 285.338654,335.116760 
z"/>
<path fill="#79DDFF" opacity="1.000000" stroke="none" 
	d="
M150.062180,411.979340 
	C148.442368,401.949280 146.822556,391.919250 145.134583,381.488098 
	C145.066437,381.087036 145.067139,381.087372 145.529144,381.073975 
	C184.795547,381.073212 223.599915,381.085815 262.365906,381.515747 
	C260.021301,392.003601 257.715149,402.074127 254.915939,412.108093 
	C219.939590,412.100006 185.456253,412.128479 150.747040,412.103394 
	C150.521133,412.049805 150.062180,411.979340 150.062180,411.979340 
z"/>
<path fill="#24CBFC" opacity="1.000000" stroke="none" 
	d="
M150.972931,412.156982 
	C185.456253,412.128479 219.939590,412.100006 254.854874,412.518402 
	C254.764023,415.698425 253.884857,418.424683 253.831650,421.166962 
	C253.789383,423.345001 254.757721,425.542603 255.277374,427.731506 
	C227.230759,427.800507 199.184143,427.871460 171.137527,427.936829 
	C165.660385,427.949585 160.183182,427.940857 154.204498,427.944519 
	C153.703003,427.946991 153.337067,427.967560 153.161545,427.550598 
	C152.314987,422.141449 151.643951,417.149200 150.972931,412.156982 
z"/>
<path fill="#FED05D" opacity="1.000000" stroke="none" 
	d="
M137.538956,202.633194 
	C140.713943,202.641815 143.424133,202.734604 146.387634,203.160934 
	C134.772171,208.786819 133.248871,223.647446 144.209732,231.574585 
	C144.942398,232.104477 145.393173,233.024155 145.975082,233.762512 
	C143.276917,233.805878 140.578735,233.849243 137.435913,233.968582 
	C130.532257,233.964203 124.065475,234.054672 117.616234,233.760559 
	C109.411865,233.386383 103.255699,227.812866 102.170662,220.171982 
	C101.194580,213.298416 105.440033,206.098450 112.363052,203.785248 
	C115.103722,202.869492 118.212059,202.888687 121.162384,202.802048 
	C126.462555,202.646393 131.769836,202.732346 137.538956,202.633194 
z"/>
<path fill="#21B8FC" opacity="1.000000" stroke="none" 
	d="
M159.675812,458.951569 
	C160.159027,458.928497 160.572586,458.958130 160.782257,459.404022 
	C162.013245,464.591248 163.034546,469.332611 164.055847,474.073944 
	C164.055847,474.073944 164.038422,474.058868 164.059494,474.067566 
	C146.281082,474.050690 128.481567,474.000183 110.682129,474.019012 
	C106.759109,474.023193 103.249321,472.583099 102.694305,468.770691 
	C102.311790,466.143280 103.812881,462.885529 105.363441,460.485260 
	C106.121269,459.312164 108.909866,459.071411 110.783791,459.058441 
	C126.919472,458.946320 143.056183,458.982635 159.675812,458.951569 
z"/>
<path fill="#21B9FC" opacity="1.000000" stroke="none" 
	d="
M150.747040,412.103394 
	C151.643951,417.149200 152.314987,422.141449 152.978348,427.545685 
	C139.170761,427.970795 125.370270,428.064148 111.571190,427.963379 
	C104.611359,427.912506 100.544792,422.179077 103.041534,416.348328 
	C104.608200,412.689636 107.661613,411.978760 111.203896,411.987366 
	C123.840034,412.018127 136.476288,411.995728 149.587341,411.986389 
	C150.062180,411.979340 150.521133,412.049805 150.747040,412.103394 
z"/>
<path fill="#21B8FC" opacity="1.000000" stroke="none" 
	d="
M145.083389,381.097473 
	C133.466339,381.071014 121.832329,381.031372 110.198303,380.998840 
	C106.467140,380.988403 103.150818,379.364716 102.700775,375.796204 
	C102.365379,373.136688 103.865707,369.969940 105.326805,367.487091 
	C105.965607,366.401550 108.543182,366.082336 110.248703,366.060272 
	C120.884659,365.922577 131.522980,365.967590 142.639038,365.904053 
	C143.117569,365.856079 143.087296,365.877075 143.107697,366.302612 
	C143.774445,371.514526 144.420792,376.300964 145.067139,381.087372 
	C145.067139,381.087372 145.066437,381.087036 145.083389,381.097473 
z"/>
<path fill="#21B9FC" opacity="1.000000" stroke="none" 
	d="
M140.003922,335.002991 
	C130.859940,335.001068 121.711098,335.022034 112.562447,334.990509 
	C106.663544,334.970215 102.146019,331.367035 102.024681,326.674286 
	C101.900322,321.864655 105.635902,319.015167 112.135345,319.003479 
	C120.785057,318.987946 129.434814,318.997009 138.555939,318.989746 
	C139.027344,318.983948 139.002121,318.984619 139.003784,319.428741 
	C139.338867,324.919922 139.672256,329.966980 140.005646,335.014038 
	C140.005661,335.014038 139.999146,335.003632 140.003922,335.002991 
z"/>
<path fill="#21B8FC" opacity="1.000000" stroke="none" 
	d="
M137.068054,288.074036 
	C128.451202,288.056702 119.815506,288.056458 111.180321,287.989716 
	C105.540314,287.946136 101.951324,284.920685 102.022812,280.391144 
	C102.094421,275.853088 105.623726,273.011810 111.238266,272.998016 
	C119.542076,272.977570 127.845932,272.971466 136.627686,272.920959 
	C137.105591,272.882629 137.071350,272.902496 137.047333,273.379883 
	C137.034332,278.597748 137.045364,283.338226 137.056396,288.078705 
	C137.056396,288.078705 137.049423,288.062897 137.068054,288.074036 
z"/>
<path fill="#F7E07A" opacity="1.000000" stroke="none" 
	d="
M119.077278,51.294106 
	C125.182350,40.917595 134.878372,37.293297 144.536133,41.472546 
	C153.415665,45.315029 158.128632,55.371010 155.368851,64.586113 
	C152.208832,75.137619 141.412018,80.974297 130.986511,77.766998 
	C120.192902,74.446465 115.052948,63.300007 119.077278,51.294106 
z"/>
<path fill="#55E379" opacity="1.000000" stroke="none" 
	d="
M42.321438,49.558048 
	C47.488544,41.458153 54.793373,38.466335 63.532364,40.345676 
	C71.477356,42.054264 76.488472,47.411556 78.131035,55.592625 
	C79.705986,63.436970 76.228333,71.407555 69.321335,75.712303 
	C62.614620,79.892204 53.768066,79.421196 47.349033,74.542458 
	C41.170433,69.846451 38.376122,61.559437 40.509972,54.055908 
	C40.916100,52.627792 41.580696,51.273178 42.321438,49.558048 
z"/>
<path fill="#576086" opacity="1.000000" stroke="none" 
	d="
M255.628998,427.761414 
	C254.757721,425.542603 253.789383,423.345001 253.831650,421.166962 
	C253.884857,418.424683 254.764023,415.698425 255.347900,412.554962 
	C257.715149,402.074127 260.021301,392.003601 262.554810,381.205688 
	C263.817627,375.611450 264.853180,370.744629 265.888702,365.877777 
	C266.584015,363.429199 267.279327,360.980652 268.153015,358.181610 
	C276.991699,356.855835 285.528473,357.222992 294.197937,360.230225 
	C308.841400,367.244415 314.150848,380.030090 316.944519,394.928101 
	C311.025208,398.783691 305.047180,402.356598 298.930450,405.673706 
	C286.199585,412.577606 273.406403,419.367188 260.605621,426.140961 
	C259.173798,426.898651 257.527466,427.250977 255.628998,427.761414 
z"/>
<path fill="#21CBFC" opacity="1.000000" stroke="none" 
	d="
M164.519196,474.064240 
	C163.034546,469.332611 162.013245,464.591248 160.987900,459.430298 
	C174.600830,458.985260 188.217896,458.920441 201.834732,458.953400 
	C207.473770,458.967010 210.984039,462.115112 210.795349,466.727112 
	C210.611938,471.210083 207.297974,473.994659 201.849655,474.019562 
	C189.560822,474.075745 177.271606,474.048065 164.519196,474.064240 
z"/>
<path fill="#F9E27B" opacity="1.000000" stroke="none" 
	d="
M146.438538,233.845139 
	C145.393173,233.024155 144.942398,232.104477 144.209732,231.574585 
	C133.248871,223.647446 134.772171,208.786819 146.839615,203.217484 
	C150.001556,202.898834 152.964844,202.821426 155.928131,202.820892 
	C194.404984,202.813812 232.881882,202.791748 271.358673,202.835938 
	C281.668243,202.847778 288.225830,209.068207 288.122253,218.473190 
	C288.024811,227.321320 281.049225,233.821991 271.325500,233.844223 
	C244.675018,233.905136 218.024292,233.859497 191.373657,233.869492 
	C176.549774,233.875046 161.725891,233.907455 146.438538,233.845139 
z"/>
<path fill="#24CBFC" opacity="1.000000" stroke="none" 
	d="
M140.473114,334.985535 
	C139.672256,329.966980 139.338867,324.919922 139.011139,319.421051 
	C191.668228,318.987732 244.319656,319.006226 297.432068,319.023438 
	C293.883728,324.267578 289.874420,329.512939 285.601868,334.937531 
	C269.518463,335.052124 253.698303,334.942261 237.878082,334.932373 
	C205.565598,334.912140 173.253082,334.945648 140.473114,334.985535 
z"/>
<path fill="#21CBFC" opacity="1.000000" stroke="none" 
	d="
M137.519684,288.059723 
	C137.045364,283.338226 137.034332,278.597748 137.047760,273.382172 
	C186.736755,272.905182 236.401291,272.891144 286.065765,272.943573 
	C288.161041,272.945801 291.036102,272.839935 292.173004,274.062714 
	C294.012421,276.041138 296.051941,279.400909 295.531586,281.588623 
	C294.948822,284.038727 291.813202,286.130035 289.384247,287.783905 
	C288.232941,288.567810 286.141602,287.995819 284.476166,287.996429 
	C235.645096,288.014435 186.814026,288.027161 137.519684,288.059723 
z"/>
<path fill="#21CBFC" opacity="1.000000" stroke="none" 
	d="
M265.428284,365.892456 
	C264.853180,370.744629 263.817627,375.611450 262.593201,380.788330 
	C223.599915,381.085815 184.795547,381.073212 145.529144,381.073975 
	C144.420792,376.300964 143.774445,371.514526 143.103455,366.313812 
	C183.708496,365.902039 224.338165,365.904572 265.428284,365.892456 
z"/>
</svg>